<?xml version="1.0" encoding="UTF-8"?><svg id="Layer_1" xmlns="http://www.w3.org/2000/svg" xmlns:xlink="http://www.w3.org/1999/xlink" viewBox="0 0 600 600"><defs><style>.cls-1{fill:url(#linear-gradient);stroke-linejoin:round;stroke-width:16px;}.cls-1,.cls-2{stroke:#7fe5e5;}.cls-3{fill:#fff;}.cls-2{fill:none;stroke-linecap:round;stroke-miterlimit:10;stroke-width:3px;}</style><linearGradient id="linear-gradient" x1="70.96" y1="301.3" x2="511.55" y2="301.3" gradientUnits="userSpaceOnUse"><stop offset="0" stop-color="#4c92a8"/><stop offset=".1" stop-color="#4c92a8"/><stop offset=".1" stop-color="#4c92a8"/><stop offset=".31" stop-color="#488ea4"/><stop offset=".49" stop-color="#3d859b"/><stop offset=".66" stop-color="#2b768b"/><stop offset=".82" stop-color="#126075"/><stop offset=".84" stop-color="#0f5d72"/></linearGradient></defs><path class="cls-1" d="M293.69,575.47s-222.73-121.98-222.73-221.18V127.35S294.02,27.13,294.02,27.13h0s217.53,100.21,217.53,100.21v226.95c0,99.2-217.86,221.18-217.86,221.18h0Z"/><path class="cls-3" d="M153.4,216.16c18.89,0,34.37,11.09,34.37,30.96s-15.11,31.57-34.74,31.57h-20.72v31.08h-21.45v-93.61h42.54ZM151.33,262.11c8.04,0,14.75-4.51,14.75-14.63s-6.7-14.75-14.75-14.75h-19.01v29.37h19.01Z"/><path class="cls-3" d="M238.23,214.82c30.11,0,46.2,20.72,46.2,48.15s-15.97,48.15-46.32,48.15-46.2-20.72-46.2-48.15,15.97-48.15,46.32-48.15ZM238.23,294.65c16.7,0,24.5-14.26,24.5-31.69s-8.04-31.69-24.62-31.69-24.5,14.26-24.5,31.69,8.04,31.69,24.62,31.69Z"/><path class="cls-3" d="M336.59,216.16c18.89,0,34.37,11.09,34.37,30.96s-15.11,31.57-34.74,31.57h-20.72v31.08h-21.45v-93.61h42.54ZM334.52,262.11c8.04,0,14.75-4.51,14.75-14.63s-6.7-14.75-14.75-14.75h-19.01v29.37h19.01Z"/><path class="cls-3" d="M473.22,216.16v93.61h-19.9v-61.8h-.23l-18.87,61.8h-16.92l-18.87-61.55h-.23v61.55h-19.44v-93.61h27.1l20.24,67.4h.23l20.13-67.4h26.76Z"/><line class="cls-2" x1="111.95" y1="342.16" x2="473.08" y2="342.16"/><polyline class="cls-3" points="424.24 185.29 376.77 103.21 290.66 185.29 278.56 185.29 330.02 135.5 324.77 125.13 264.42 185.29 256.22 185.29 322.1 120.56 318.16 112.41 241.85 185.29 229.13 185.29 271.08 144.27 265.68 133.27 214.94 185.29 207.05 185.29 263.01 128.7 259.06 120.56 192.65 185.29 181.24 185.29 217.72 147.75 212.81 137.62 167.05 185.29 159.09 185.29 210.14 133.05 206.2 124.91 144.69 185.29"/><line class="cls-2" x1="225.17" y1="480.81" x2="364.09" y2="480.81"/><path class="cls-3" d="M256.39,480.9c36.45,0,37.45,44.52,37.45,44.52l-.02-.12s1.08-44.22,37.53-44.22l-.2-.22c-36.45,0-37.45-40.99-37.45-40.99l.02.12s-1.08,40.68-37.53,40.68l.2.22Z"/><path class="cls-3" d="M208.44,410.11l6.27-7.68c4.11,3.77,9.37,6,15.37,6s9.03-2.29,9.03-6.07c0-4.11-4.18-5.12-11.73-6.81-8.76-2.02-16.99-5.33-16.99-15.5,0-8.9,6.88-15.84,19.82-15.84,8.63,0,14.76,2.63,19.62,6.61l-5.53,7.89c-4.25-3.51-9.03-5.46-14.22-5.46s-7.89,2.56-7.89,5.73c0,3.98,3.84,4.85,11.32,6.54,9.17,2.09,17.39,5.19,17.39,15.71,0,9.5-7.41,16.25-21.03,16.25-9.64,0-16.25-2.76-21.44-7.35Z"/><path class="cls-3" d="M287.91,405.39h-20.15l-3.84,11.32h-11.93l18.87-51.77h14.29l18.94,51.77h-12.34l-3.84-11.32ZM284.88,396.43l-6.94-20.69h-.13l-7.01,20.69h14.09Z"/><path class="cls-3" d="M308.74,416.72v-51.77h36v9.17h-24.13v12.67h20.9v9.1h-20.9v20.83h-11.86Z"/><path class="cls-3" d="M379.89,411.06c-3.24,3.84-7.82,6.4-15.3,6.4-12.81,0-19.28-7.62-19.28-18.74s6.4-18.94,18.34-18.94,17.53,7.75,17.53,17.8c0,1.48-.07,3.1-.27,4.25h-24.4c.61,4.65,2.9,7.62,8.43,7.62,3.1,0,5.93-1.21,8.16-4.18l6.81,5.8ZM370.32,395.15c-.4-4.52-2.16-7.35-6.74-7.35s-6.61,2.83-7.08,7.35h13.82Z"/><path class="cls-3" d="M386.5,376.36c0,2.39-1.9,4.3-4.35,4.3s-4.35-1.92-4.35-4.3,1.9-4.3,4.35-4.3,4.35,1.92,4.35,4.3ZM385.7,376.36c0-1.96-1.52-3.55-3.55-3.55s-3.55,1.58-3.55,3.55,1.52,3.55,3.55,3.55,3.55-1.58,3.55-3.55ZM382.55,374.2c.83,0,1.47.47,1.47,1.29,0,.65-.38,1.09-.94,1.27l1.07,1.76h-.98l-.98-1.7h-.76v1.7h-.85v-4.33h1.96ZM381.44,376.2h.94c.45,0,.78-.22.78-.67s-.31-.65-.78-.65h-.94v1.32Z"/></svg>